HIERARCHY
ROOT Hips
{
	OFFSET 0.00000 0.00000 0.00000
	CHANNELS 6 Xposition Yposition Zposition Zrotation Yrotation Xrotation 
	JOINT LHipJoint
	{
		OFFSET 0 0 0
		CHANNELS 3 Zrotation Yrotation Xrotation
		JOINT LeftUpLeg
		{
			OFFSET 1.92384 -1.64427 0.83032
			CHANNELS 3 Zrotation Yrotation Xrotation
			JOINT LeftLeg
			{
				OFFSET 2.52872 -6.94761 0.00000
				CHANNELS 3 Zrotation Yrotation Xrotation
				JOINT LeftFoot
				{
					OFFSET 2.51827 -6.91890 0.00000
					CHANNELS 3 Zrotation Yrotation Xrotation
					JOINT LeftToeBase
					{
						OFFSET 0.22757 -0.62524 2.06528
						CHANNELS 3 Zrotation Yrotation Xrotation
						End Site
						{
							OFFSET 0.00000 -0.00000 1.08218
						}
					}
				}
			}
		}
	}
	JOINT RHipJoint
	{
		OFFSET 0 0 0
		CHANNELS 3 Zrotation Yrotation Xrotation
		JOINT RightUpLeg
		{
			OFFSET -2.09517 -1.64427 0.83032
			CHANNELS 3 Zrotation Yrotation Xrotation
			JOINT RightLeg
			{
				OFFSET -2.55173 -7.01082 0.00000
				CHANNELS 3 Zrotation Yrotation Xrotation
				JOINT RightFoot
				{
					OFFSET -2.50265 -6.87598 0.00000
					CHANNELS 3 Zrotation Yrotation Xrotation
					JOINT RightToeBase
					{
						OFFSET -0.22612 -0.62126 1.98677
						CHANNELS 3 Zrotation Yrotation Xrotation
						End Site
						{
							OFFSET -0.00000 -0.00000 1.04433
						}
					}
				}
			}
		}
	}
	JOINT LowerBack
	{
		OFFSET 0 0 0
		CHANNELS 3 Zrotation Yrotation Xrotation
		JOINT Spine
		{
			OFFSET 0.02839 1.68926 0.31690
			CHANNELS 3 Zrotation Yrotation Xrotation
			JOINT Spine1
			{
				OFFSET -0.01522 1.70183 0.21192
				CHANNELS 3 Zrotation Yrotation Xrotation
				JOINT Neck
				{
					OFFSET 0 0 0
					CHANNELS 3 Zrotation Yrotation Xrotation
					JOINT Neck1
					{
						OFFSET -0.04523 1.88988 0.10630
						CHANNELS 3 Zrotation Yrotation Xrotation
						JOINT Head
						{
							OFFSET 0.05172 1.78070 -0.56858
							CHANNELS 3 Zrotation Yrotation Xrotation
							End Site
							{
								OFFSET 0.01532 1.90392 -0.20434
							}
						}
					}
				}
				JOINT LeftShoulder
				{
					OFFSET 0 0 0
					CHANNELS 3 Zrotation Yrotation Xrotation
					JOINT LeftArm
					{
						OFFSET 3.25522 0.75486 0.22086
						CHANNELS 3 Zrotation Yrotation Xrotation
						JOINT LeftForeArm
						{
							OFFSET 4.85645 -0.00000 0.00000
							CHANNELS 3 Zrotation Yrotation Xrotation
							JOINT LeftHand
							{
								OFFSET 2.79874 -0.00000 0.00000
								CHANNELS 3 Zrotation Yrotation Xrotation
								JOINT LeftFingerBase
								{
									OFFSET 0 0 0
									CHANNELS 3 Zrotation Yrotation Xrotation
									JOINT LeftHandIndex1
									{
										OFFSET 0.57340 -0.00000 0.00000
										CHANNELS 3 Zrotation Yrotation Xrotation
										End Site
										{
											OFFSET 0.46229 -0.00000 0.00000
										}
									}
								}
								JOINT LThumb
								{
									OFFSET 0 0 0
									CHANNELS 3 Zrotation Yrotation Xrotation
									End Site
									{
										OFFSET 0.46935 -0.00000 0.46935
									}
								}
							}
						}
					}
				}
				JOINT RightShoulder
				{
					OFFSET 0 0 0
					CHANNELS 3 Zrotation Yrotation Xrotation
					JOINT RightArm
					{
						OFFSET -3.29079 0.52751 0.36356
						CHANNELS 3 Zrotation Yrotation Xrotation
						JOINT RightForeArm
						{
							OFFSET -4.67018 -0.00000 0.00000
							CHANNELS 3 Zrotation Yrotation Xrotation
							JOINT RightHand
							{
								OFFSET -2.65534 -0.00000 0.00000
								CHANNELS 3 Zrotation Yrotation Xrotation
								JOINT RightFingerBase
								{
									OFFSET 0 0 0
									CHANNELS 3 Zrotation Yrotation Xrotation
									JOINT RightHandIndex1
									{
										OFFSET -0.59407 -0.00000 0.00000
										CHANNELS 3 Zrotation Yrotation Xrotation
										End Site
										{
											OFFSET -0.47895 -0.00000 0.00000
										}
									}
								}
								JOINT RThumb
								{
									OFFSET 0 0 0
									CHANNELS 3 Zrotation Yrotation Xrotation
									End Site
									{
										OFFSET -0.48627 -0.00000 0.48627
									}
								}
							}
						}
					}
				}
			}
		}
	}
}
MOTION
Frames: 5
Frame Time: .0083333
3.9895 16.556 46.1509 0 0 0 0 0 0 -21 0 0 0 0 0 0 0 0 0 0 0 0 0 0 21 0 0 0 0 0 0 0 0 0 0 0 0 0 0 0 0 0 0 0 0 0 0 -16 0 0 21 0 0 11 0 0 0 -8 0 0 0 0 0 0 0 0 0 0 0 0 0 0 0 0 0 0 0 0 8 0 0 0 0 0 0 0 0 0 0 0 0 0 0 0 0 0
3.9895 16.5560 46.1509 176.0570 -8.8440 -152.3410 0.0000 0.0000 0.0000 -23.1553 -23.2582 -32.9569 2.6810 10.1598 29.4959 0.8455 5.2510 -20.0442 0.5628 -4.8050 -13.3533 0.0000 0.0000 0.0000 3.9555 19.4109 -51.3269 -6.7961 -15.1577 48.0988 -0.8176 -8.8153 -22.4564 -0.0014 0.2440 -0.6704 -9.1601 0.2534 -6.8237 4.4338 -2.9073 -17.5482 10.8198 -1.0985 -15.5851 21.8000 19.5211 4.3385 -7.5668 26.7060 32.7663 -2.7665 12.7783 14.9136 -0.0000 0.0000 0.0000 -87.4446 27.3193 42.2236 76.8808 -59.3396 -48.6637 -0.0000 -0.0000 14.3560 -7.1841 26.6192 -3.2324 -7.1250 0.0000 -0.0000 -37.6117 52.4678 -7.8128 -0.0000 0.0000 0.0000 65.5555 -24.7432 31.2291 -19.5153 30.0539 -5.2864 0.0000 0.0000 8.6999 -6.8566 -15.4806 1.8383 7.1250 -0.0000 -0.0000 19.1359 -44.6733 0.1604
3.9896 16.5596 46.1196 176.0750 -8.6251 -152.3000 0.0000 0.0000 0.0000 -23.1938 -23.1692 -32.8063 2.6518 10.1088 29.3297 0.8377 5.4402 -20.0948 0.5678 -4.8259 -13.4125 0.0000 0.0000 0.0000 3.6967 19.6656 -51.6422 -6.6777 -15.0543 47.6444 -0.8010 -8.9017 -22.3803 -0.0011 0.2153 -0.5914 -9.1641 0.2734 -6.8132 4.3856 -2.8900 -17.5472 10.7654 -1.0960 -15.5966 21.6387 19.4346 3.9200 -7.4312 26.4562 33.1748 -2.7110 12.6198 15.0913 -0.0000 0.0000 0.0000 -87.5207 27.0942 42.3291 76.6775 -59.3186 -48.4888 -0.0000 -0.0000 14.0662 -7.0980 26.5541 -3.1862 -7.1250 0.0000 -0.0000 -37.4872 52.4301 -7.7426 -0.0000 0.0000 0.0000 65.6272 -24.7066 31.0756 -19.6077 30.1668 -5.3328 0.0000 0.0000 8.4957 -6.5737 -15.5576 1.7703 7.1250 -0.0000 -0.0000 19.4126 -44.7137 0.1428
3.9904 16.5649 46.0872 176.0920 -8.4514 -152.2600 0.0000 0.0000 0.0000 -23.2144 -23.1231 -32.6150 2.6165 10.0468 29.1283 0.8307 5.6197 -20.1482 0.5681 -4.8273 -13.4167 0.0000 0.0000 0.0000 3.4459 19.9070 -51.9186 -6.5411 -14.9329 47.1165 -0.7719 -9.0702 -22.2606 -0.0008 0.1870 -0.5137 -9.1615 0.2821 -6.7951 4.3405 -2.8959 -17.5670 10.7154 -1.1049 -15.6346 21.3987 19.3344 3.4418 -7.1894 26.1401 33.6985 -2.6159 12.4243 15.2934 -0.0000 -0.0000 0.0000 -87.5708 26.9311 42.4864 76.5136 -59.3015 -48.3478 -0.0000 -0.0000 13.8266 -6.8010 26.4830 -3.0442 -7.1250 0.0000 -0.0000 -37.1715 52.4241 -7.6548 -0.0000 -0.0000 0.0000 65.6921 -24.7044 30.9924 -19.6834 30.2590 -5.3709 0.0000 0.0000 8.3359 -6.4410 -15.6804 1.7477 7.1250 -0.0000 -0.0000 19.5738 -44.8145 0.0933
3.9926 16.5709 46.0519 176.1040 -8.2714 -152.2060 0.0000 0.0000 0.0000 -23.2474 -23.0327 -32.4450 2.5813 9.9842 28.9256 0.8243 5.7814 -20.1967 0.5732 -4.8486 -13.4773 0.0000 0.0000 0.0000 3.1803 20.1519 -52.2252 -6.4006 -14.8056 46.5691 -0.7417 -9.2789 -22.1658 -0.0005 0.1462 -0.4017 -9.1772 0.2890 -6.8043 4.2949 -2.9042 -17.5874 10.6737 -1.1145 -15.6563 21.0427 19.1205 2.8279 -6.9788 25.6389 34.2496 -2.5525 12.1241 15.4918 0.0000 0.0000 0.0000 -87.6205 26.7687 42.6431 76.3859 -59.2880 -48.2380 -0.0000 -0.0000 13.4361 -6.7781 26.4553 -3.0310 -7.1250 0.0000 -0.0000 -37.1307 52.4056 -7.6260 0.0000 0.0000 0.0000 65.7928 -24.6694 30.8284 -19.6802 30.2551 -5.3693 0.0000 0.0000 8.4070 -6.4751 -15.6016 1.7484 7.1250 -0.0000 -0.0000 19.5153 -44.7439 0.1284
